<?xml version="1.0" standalone="no"?>
<!DOCTYPE svg PUBLIC "-//W3C//DTD SVG 20010904//EN"
 "http://www.w3.org/TR/2001/REC-SVG-20010904/DTD/svg10.dtd">
<svg version="1.0" xmlns="http://www.w3.org/2000/svg"
 width="78.000000pt" height="118.000000pt" viewBox="0 0 78.000000 118.000000"
 preserveAspectRatio="xMidYMid meet">

<g transform="translate(0.000000,118.000000) scale(0.100000,-0.100000)"
fill="#000000" stroke="none">
<path d="M290 1042 c-91 -53 -182 -107 -202 -119 l-38 -22 92 -158 c50 -87 94
-162 98 -167 13 -13 71 26 65 44 -4 8 -36 66 -71 129 -36 62 -62 117 -57 121
13 13 252 150 261 150 9 0 52 -72 52 -87 0 -5 -34 -29 -75 -52 -42 -24 -78
-47 -81 -52 -4 -7 104 -207 127 -233 4 -5 21 1 37 13 17 11 35 21 41 21 13 0
171 90 171 98 0 14 -236 412 -245 412 -5 0 -84 -44 -175 -98z m280 -229 c14
-27 26 -51 28 -54 3 -6 -84 -59 -97 -59 -3 0 -18 22 -34 49 l-27 49 47 30 c27
17 50 31 54 31 3 1 16 -20 29 -46z"/>
<path d="M455 410 c-3 -6 1 -7 9 -4 18 7 21 14 7 14 -6 0 -13 -4 -16 -10z"/>
<path d="M494 404 c-18 -14 -18 -15 4 -4 12 6 22 13 22 15 0 8 -5 6 -26 -11z"/>
</g>
</svg>
